Patient4_TMGait_0pt5_01_left_07_GRF.mot
version=1
nRows=52
nColumns=19
inDegrees=no
endheader
time	F1x	F1y	F1z	M1x	M1y	M1z	F2x	F2y	F2z	M2x	M2y	M2z	EC1x	EC1y	EC1z	EC2x	EC2y	EC2z
9.41	9.7229	15.9473	-4.5844	-3.0274	7.4297	19.7284	-17.4484	691.0255	-59.2015	258.9446	42.0302	493.4375	-0.0592	0.0182	-0.0073	-0.0462	0.0165	0.9585
9.4236	6.5378	11.454	-3.1126	-2.3082	4.9716	13.8096	-14.1828	691.3916	-57.2857	258.2143	39.8208	491.217	-0.0592	0.0182	-0.0073	-0.0462	0.0165	0.9585
9.4371	3.8084	7.6818	-1.8427	-1.7176	2.8726	8.8343	-11.0989	693.8658	-55.8565	258.2549	37.8369	489.844	-0.0592	0.0182	-0.0073	-0.0462	0.0165	0.9585
9.4507	1.7025	4.8481	-0.85885	-1.2841	1.2609	5.0899	-8.3697	698.9333	-55.057	259.3181	36.2397	489.7286	-0.0592	0.0182	-0.0073	-0.0462	0.0165	0.9585
9.4643	0.22604	2.9273	-0.17383	-1.0002	0.14542	2.5441	-6.0351	706.7174	-54.8719	261.4985	35.0701	491.0359	-0.0592	0.0182	-0.0073	-0.0462	0.0165	0.9585
9.4779	-0.71724	1.7827	0.25484	-0.83966	-0.55176	1.025	-4.0278	717.007	-55.1578	264.7468	34.2512	493.6983	-0.0592	0.0182	-0.0073	-0.0462	0.0165	0.9585
9.4914	-1.2533	1.2168	0.48367	-0.76576	-0.92999	0.28514	-2.2159	729.2736	-55.7203	268.8831	33.6467	497.4129	-0.0592	0.0182	-0.0073	-0.0462	0.0165	0.9585
9.505	-1.5078	1.0136	0.58202	-0.73587	-1.0966	0.054272	-0.45099	742.7397	-56.332	273.6231	33.0837	501.7063	-0.0592	0.0182	-0.0073	-0.0462	0.0165	0.9585
9.5186	-1.5987	0.9718	0.59967	-0.70607	-1.1344	0.08571	1.4135	756.4601	-56.7857	278.6079	32.399	505.9948	-0.0592	0.0182	-0.0073	-0.0462	0.0165	0.9585
9.5321	-1.6051	0.90247	0.58528	-0.63074	-1.1135	0.15341	3.4795	769.4376	-56.9095	283.4474	31.4521	509.6699	-0.0592	0.0182	-0.0073	-0.0462	0.0165	0.9585
9.5457	-1.5821	0.6465	0.56632	-0.46866	-1.0761	0.081392	5.7893	780.7429	-56.5963	287.7673	30.1601	512.1698	-0.0592	0.0182	-0.0073	-0.0462	0.0165	0.9585
9.5593	-1.5493	0.068566	0.56228	-0.18359	-1.0452	-0.27568	8.3207	789.6499	-55.8057	291.2632	28.5015	513.0789	-0.0592	0.0182	-0.0073	-0.0462	0.0165	0.9585
9.5729	-1.4964	-0.92508	0.57468	0.25288	-1.0163	-1.0162	11.0067	795.6967	-54.5863	293.7244	26.5226	512.1639	-0.0592	0.0182	-0.0073	-0.0462	0.0165	0.9585
9.5864	-1.3885	-2.3682	0.58897	0.85253	-0.96087	-2.1678	13.7837	798.6743	-53.0758	295.0344	24.3216	509.3435	-0.0592	0.0182	-0.0073	-0.0462	0.0165	0.9585
9.6	-1.1421	-4.1985	0.58674	1.5924	-0.83625	-3.676	16.5982	798.5869	-51.486	295.1583	22.0392	504.6737	-0.0592	0.0182	-0.0073	-0.0462	0.0165	0.9585
9.6136	-0.65027	-6.1913	0.52543	2.3873	-0.57384	-5.3467	19.4425	795.6274	-50.0523	294.1415	19.8147	498.3042	-0.0592	0.0182	-0.0073	-0.0462	0.0165	0.9585
9.6271	0.21846	-7.9085	0.35823	3.066	-0.092597	-6.8161	22.3434	790.1753	-48.968	292.1102	17.7535	490.4815	-0.0592	0.0182	-0.0073	-0.0462	0.0165	0.9585
9.6407	1.5926	-8.6077	0.012533	3.3343	0.72011	-7.4763	25.3485	782.7193	-48.3402	289.246	15.9077	481.5113	-0.0592	0.0182	-0.0073	-0.0462	0.0165	0.9585
9.6543	3.5606	-7.1798	-0.5834	2.7506	1.9613	-6.4023	28.5153	773.7725	-48.1807	285.7548	14.2755	471.7065	-0.0592	0.0182	-0.0073	-0.0462	0.0165	0.9585
9.6679	6.1352	-2.1337	-1.5093	0.72544	3.7038	-2.3514	31.8763	763.7887	-48.4133	281.8288	12.8133	461.3559	-0.0592	0.0182	-0.0073	-0.0462	0.0165	0.9585
9.6814	9.1503	8.3418	-2.8038	-3.4531	5.9142	6.2049	35.4479	753.0117	-48.8759	277.5913	11.4353	450.6184	-0.0592	0.0182	-0.0073	-0.0462	0.0165	0.9585
9.695	12.1908	26.1756	-4.4459	-10.5416	8.4045	20.8948	39.2045	741.3838	-49.3298	273.0579	10.0358	439.5	-0.0592	0.0182	-0.0073	-0.0462	0.0165	0.9585
9.7086	14.478	53.02	-6.2817	-21.184	10.7332	43.1236	43.0881	728.4677	-49.4668	268.1041	8.4848	427.8066	-0.0592	0.0182	-0.0073	-0.0462	0.0165	0.9585
9.7221	14.8947	89.7012	-8.0155	-35.6933	12.2088	73.6264	46.9931	713.4099	-48.9521	262.4489	6.653	415.1278	-0.0592	0.0182	-0.0073	-0.0462	0.0165	0.9585
9.7357	12.4058	135.7115	-9.1822	-53.848	12.0342	112.0587	50.7484	694.995	-47.468	255.6664	4.4384	400.8689	-0.0592	0.0182	-0.0073	-0.0462	0.0165	0.9585
9.7493	7.0271	188.9823	-9.1119	-74.7861	9.6478	156.7632	54.1382	671.7992	-44.8042	247.2375	1.8147	384.3141	-0.0592	0.0182	-0.0073	-0.0462	0.0165	0.9585
9.7629	-0.085587	245.3573	-6.9477	-96.808	4.7756	204.2286	56.8689	642.4603	-40.9176	236.6465	-1.1346	364.7818	-0.0592	0.0182	-0.0073	-0.0462	0.0165	0.9585
9.7764	-7.5599	299.1161	-2.2809	-117.6556	-2.3595	249.512	58.6207	606.0008	-35.963	223.5033	-4.2167	341.7845	-0.0592	0.0182	-0.0073	-0.0462	0.0165	0.9585
9.79	-14.2243	346.2081	4.0662	-135.7886	-10.5197	289.0421	59.1083	562.2127	-30.2617	207.6872	-7.169	315.2437	-0.0592	0.0182	-0.0073	-0.0462	0.0165	0.9585
9.8036	-19.6546	385.6704	10.9965	-150.8958	-18.5578	321.9637	58.1321	511.8908	-24.2544	189.4436	-9.7057	285.6143	-0.0592	0.0182	-0.0073	-0.0462	0.0165	0.9585
9.8171	-23.9092	418.84	17.4245	-163.5703	-25.5596	349.4043	55.6524	456.7554	-18.395	169.3707	-11.5948	253.8248	-0.0592	0.0182	-0.0073	-0.0462	0.0165	0.9585
9.8307	-27.308	448.138	22.6242	-174.8069	-31.0474	373.4159	51.7656	399.2001	-13.05	148.3315	-12.6997	221.1522	-0.0592	0.0182	-0.0073	-0.0462	0.0165	0.9585
9.8443	-30.1945	476.088	26.2379	-185.6091	-34.8707	396.106	46.7213	341.8892	-8.4589	127.3044	-13.0097	188.9879	-0.0592	0.0182	-0.0073	-0.0462	0.0165	0.9585
9.8579	-32.8328	504.6382	28.4375	-196.7147	-37.2971	419.0802	40.8843	287.3379	-4.7733	107.2216	-12.5978	158.638	-0.0592	0.0182	-0.0073	-0.0462	0.0165	0.9585
9.8714	-35.4148	534.7581	29.8238	-208.4465	-38.9104	443.1411	34.672	237.5408	-2.05	88.8273	-11.601	131.1172	-0.0592	0.0182	-0.0073	-0.0462	0.0165	0.9585
9.885	-38.069	566.3744	31.1689	-220.7193	-40.4135	468.1937	28.4894	193.7038	-0.26574	72.5776	-10.1791	106.9937	-0.0592	0.0182	-0.0073	-0.0462	0.0165	0.9585
9.8986	-40.8846	598.7948	33.011	-233.2316	-42.3034	493.6149	22.641	156.2126	0.6977	58.6283	-8.4986	86.4068	-0.0592	0.0182	-0.0073	-0.0462	0.0165	0.9585
9.9121	-43.7913	631.226	35.4354	-245.6839	-44.6507	518.6622	17.3087	124.745	1.0309	46.8778	-6.7109	69.1223	-0.0592	0.0182	-0.0073	-0.0462	0.0165	0.9585
9.9257	-46.5556	662.9365	38.1902	-257.8302	-47.1888	542.6164	12.5519	98.5238	0.95818	37.0543	-4.9433	54.6987	-0.0592	0.0182	-0.0073	-0.0462	0.0165	0.9585
9.9393	-48.8676	693.1557	40.9909	-269.4076	-49.5927	564.7588	8.3955	76.6093	0.69552	28.8243	-3.3069	42.6266	-0.0592	0.0182	-0.0073	-0.0462	0.0165	0.9585
9.9529	-50.4079	720.9628	43.6742	-280.0821	-51.6294	584.2896	4.8618	58.1498	0.41119	21.8841	-1.8905	32.4521	-0.0592	0.0182	-0.0073	-0.0462	0.0165	0.9585
9.9664	-50.9362	745.3406	46.1493	-289.4722	-53.1491	600.3957	1.9877	42.5292	0.19817	16.0122	-0.75195	23.8561	-0.0592	0.0182	-0.0073	-0.0462	0.0165	0.9585
9.98	-50.2959	765.3627	48.3388	-297.2247	-54.0474	612.3968	-0.15277	29.4167	0.073948	11.0894	0.079076	16.6502	-0.0592	0.0182	-0.0073	-0.0462	0.0165	0.9585
9.9936	-48.4365	780.3688	50.1635	-303.0818	-54.2515	619.8766	-1.5184	18.7489	0.010296	7.0899	0.60013	10.7959	-0.0592	0.0182	-0.0073	-0.0462	0.0165	0.9585
10.0071	-45.4239	790.0416	51.5659	-306.914	-53.7416	622.7392	-2.1444	10.5745	-0.028639	4.0304	0.84061	6.3054	-0.0592	0.0182	-0.0073	-0.0462	0.0165	0.9585
10.0207	-41.4236	794.4254	52.5268	-308.7265	-52.56	621.2014	-2.2527	4.8499	-0.046751	1.8911	0.87937	3.151	-0.0592	0.0182	-0.0073	-0.0462	0.0165	0.9585
10.0343	-36.6934	793.9559	53.0899	-308.6655	-50.8317	615.8036	-2.0683	1.2489	-0.053804	0.547	0.80693	1.1592	-0.0592	0.0182	-0.0073	-0.0462	0.0165	0.9585
10.0479	-31.5525	789.4415	53.3524	-307.0139	-48.7451	607.3561	-1.75	-0.70897	-0.052198	-0.18179	0.68488	0.064921	-0.0592	0.0182	-0.0073	-0.0462	0.0165	0.9585
10.0614	-26.3344	781.9502	53.4669	-304.1542	-46.5403	596.8369	-1.4062	-1.5091	-0.049218	-0.47712	0.56007	-0.38891	-0.0592	0.0182	-0.0073	-0.0462	0.0165	0.9585
10.075	-21.3539	772.6297	53.582	-300.5056	-44.4498	585.2425	-1.0968	-1.5698	-0.040159	-0.49508	0.44853	-0.42386	-0.0592	0.0182	-0.0073	-0.0462	0.0165	0.9585
10.0886	-16.8614	762.5697	53.8115	-296.4782	-42.6646	573.4724	-0.85183	-1.2117	-0.03015	-0.35667	0.36158	-0.21207	-0.0592	0.0182	-0.0073	-0.0462	0.0165	0.9585
10.1021	-13.0223	752.7624	54.1978	-292.4587	-41.2866	562.2923	-0.67299	-0.65808	-0.013882	-0.14752	0.29239	0.12453	-0.0592	0.0182	-0.0073	-0.0462	0.0165	0.9585
